<?xml version="1.0" encoding="UTF-8"?>
<svg version="1.1" xmlns="http://www.w3.org/2000/svg" width="528" height="530">
<path d="M0 0 C6.54209659 6.70820452 10.3276232 14.95447414 14.0625 23.42578125 C14.33835937 24.04807617 14.61421875 24.67037109 14.8984375 25.31152344 C18.63303454 33.95009011 21.08144695 42.85708527 23.3125 51.98828125 C23.55887207 52.99238037 23.80524414 53.99647949 24.05908203 55.03100586 C27.41625283 69.3981656 28.44330322 83.36558885 28.375 98.05078125 C28.37284485 98.88716125 28.3706897 99.72354126 28.36846924 100.58526611 C28.31549996 113.41638458 27.79645686 125.84809383 25.0625 138.42578125 C24.86914062 139.34858887 24.67578125 140.27139648 24.4765625 141.22216797 C13.24225627 193.58825126 -17.08517764 242.06846097 -60.9375 273.42578125 C-61.60442871 273.90466797 -62.27135742 274.38355469 -62.95849609 274.87695312 C-108.88900823 307.48305867 -165.98448715 321.15173596 -221.70800781 311.96923828 C-253.84683544 306.3838427 -287.91758633 293.95277829 -312.9375 272.42578125 C-310.06038461 267.05978772 -306.76285002 262.47554042 -302.875 257.80078125 C-302.02325195 256.76570435 -302.02325195 256.76570435 -301.15429688 255.7097168 C-299.42185433 253.60958892 -297.68102309 251.51671488 -295.9375 249.42578125 C-295.41043457 248.79140137 -294.88336914 248.15702148 -294.34033203 247.50341797 C-289.72005583 241.9505003 -285.10875416 236.47698844 -279.9375 231.42578125 C-276.26769439 232.76667176 -272.93037429 234.49224055 -269.52270508 236.39550781 C-248.54744771 248.01650276 -224.23533158 256.47485986 -200.046875 256.62890625 C-198.93998322 256.6394957 -198.93998322 256.6394957 -197.81072998 256.65029907 C-175.19919702 256.92446903 -175.19919702 256.92446903 -152.9375 253.42578125 C-152.17791992 253.24837402 -151.41833984 253.0709668 -150.63574219 252.88818359 C-128.87694664 247.65488699 -108.40027563 237.3560972 -90.9375 223.42578125 C-90.31311035 222.93078125 -89.6887207 222.43578125 -89.04541016 221.92578125 C-55.69443492 195.16835218 -35.16902594 155.73254736 -30.40234375 113.37890625 C-27.50406997 84.25372024 -35.15327413 54.87564704 -49.0925293 29.38696289 C-51.29878839 25.24752745 -52.77392506 22.21962038 -51.9375 17.42578125 C-50.72168338 14.5561906 -49.21594832 11.91452766 -47.625 9.23828125 C-47.01881836 8.1719043 -47.01881836 8.1719043 -46.40039062 7.08398438 C-41.73849978 -0.97388549 -41.73849978 -0.97388549 -36.9375 -2.57421875 C-35.39400913 -2.72112638 -33.84579257 -2.82134094 -32.296875 -2.890625 C-30.93755859 -2.9534668 -30.93755859 -2.9534668 -29.55078125 -3.01757812 C-28.13345703 -3.07655273 -28.13345703 -3.07655273 -26.6875 -3.13671875 C-25.75808594 -3.17990234 -24.82867187 -3.22308594 -23.87109375 -3.26757812 C-5.05351986 -4.10598488 -5.05351986 -4.10598488 0 0 Z " fill="#25BDC0" transform="translate(443.9375,156.57421875)"/>
<path d="M0 0 C-1.48134693 4.46900732 -3.95266744 7.81903373 -6.875 11.4375 C-7.3582373 12.04223145 -7.84147461 12.64696289 -8.33935547 13.27001953 C-9.88242061 15.18881335 -11.43834608 17.09631098 -13 19 C-13.50982422 19.62245605 -14.01964844 20.24491211 -14.54492188 20.88623047 C-20.55985712 28.18269172 -26.63370555 35.01023532 -34 41 C-38.02465933 39.52701932 -41.51599422 37.57702616 -45.1875 35.375 C-63.61314412 24.69382304 -83.77570376 17.51040063 -105 15 C-105.78761719 14.89042969 -106.57523438 14.78085938 -107.38671875 14.66796875 C-150.27701279 9.61809112 -194.27239057 21.37471953 -228.24609375 47.96484375 C-258.77364144 72.41015576 -278.28554268 107.41822459 -283.58984375 146.20849609 C-284.26765151 152.47418327 -284.38415087 158.70181242 -284.375 165 C-284.37368576 166.00580109 -284.37368576 166.00580109 -284.37234497 167.03192139 C-284.25709132 193.99489405 -277.57657682 225.52197077 -260.30883789 247.11474609 C-259.66096313 248.04794678 -259.66096313 248.04794678 -259 249 C-260.47340126 254.86508759 -264.66127598 260.03940129 -268 265 C-268.41378906 265.61746094 -268.82757813 266.23492187 -269.25390625 266.87109375 C-273.17630789 272.13285205 -279.55213305 275.82435509 -286 277 C-295.60169404 277.72255874 -303.53967349 276.8964886 -311.4375 271.125 C-334.15804094 249.39575666 -339.30978343 202.49472874 -340.21875 172.78515625 C-341.16926808 124.54276328 -326.15130043 75.328251 -295 38 C-294.525625 37.42556152 -294.05125 36.85112305 -293.5625 36.25927734 C-283.9741958 24.68901573 -273.84022306 14.30644719 -262 5 C-260.48599609 3.77796875 -260.48599609 3.77796875 -258.94140625 2.53125 C-251.62767025 -3.31024778 -244.01242516 -8.32298245 -235.87207031 -12.93847656 C-234.65914932 -13.62624136 -233.44988749 -14.3205163 -232.24511719 -15.02246094 C-207.96650602 -29.13793255 -180.74139536 -36.69133275 -153 -40 C-151.98808594 -40.13148437 -150.97617188 -40.26296875 -149.93359375 -40.3984375 C-96.37000269 -46.16802373 -44.08539956 -29.66623132 0 0 Z " fill="#153762" transform="translate(395,86)"/>
<path d="M0 0 C0.80309601 -0.00678772 1.60619202 -0.01357544 2.43362427 -0.02056885 C5.02089364 -0.03744959 7.60799168 -0.04376179 10.1953125 -0.046875 C11.07638672 -0.04921143 11.95746094 -0.05154785 12.86523438 -0.05395508 C28.20418766 -0.06927175 43.13388145 0.93481274 58.3203125 3.203125 C58.3203125 3.863125 58.3203125 4.523125 58.3203125 5.203125 C56.921875 6.578125 56.921875 6.578125 54.9453125 8.203125 C23.90359901 34.81030799 15.47776038 70.74366895 7.95223999 109.29525757 C5.35496285 122.59279741 2.61963619 135.79460882 -0.8671875 148.890625 C-1.3300415 150.64088989 -1.3300415 150.64088989 -1.80224609 152.42651367 C-6.91376745 171.03543426 -13.91631552 186.58376438 -27.6796875 200.203125 C-28.26363281 200.80898438 -28.84757812 201.41484375 -29.44921875 202.0390625 C-43.37890451 215.36924279 -62.51346396 216.75108634 -80.6796875 216.578125 C-81.49808105 216.57513397 -82.31647461 216.57214294 -83.15966797 216.56906128 C-101.10156391 216.49267852 -118.97826687 215.24350789 -136.6796875 212.203125 C-133.75471823 208.77136686 -130.82156409 205.34979519 -127.8203125 201.984375 C-102.38147324 173.27153144 -93.72337423 140.50523571 -86.21896362 103.69784546 C-84.53953481 95.47597062 -82.79483568 87.26923362 -80.99630737 79.07260132 C-80.66691184 77.56520646 -80.34070226 76.05711093 -80.01809692 74.54824829 C-75.38224283 52.8732608 -68.81982861 33.93916832 -52.6796875 18.203125 C-52.00035156 17.51476562 -51.32101563 16.82640625 -50.62109375 16.1171875 C-37.22776941 3.36429239 -17.833199 0.10491681 0 0 Z " fill="#F4B730" transform="translate(296.6796875,150.796875)"/>
<path d="M0 0 C0.66 0 1.32 0 2 0 C0.34832443 3.5786304 -1.78286492 6.74820188 -4 10 C-3.01 10.66 -2.02 11.32 -1 12 C-3.97 12 -6.94 12 -10 12 C-9.0925 10.948125 -8.185 9.89625 -7.25 8.8125 C-5.34378338 6.6005694 -3.52736129 4.38294391 -1.75 2.0625 C-1.1725 1.381875 -0.595 0.70125 0 0 Z " fill="#F3B024" transform="translate(170,351)"/>
</svg>
